# xmcd
#
# Track frame offsets:
#	183
#	8373
#	25093
#	47610
#	62870
#	84503
#	140143
#
# Disc length: 2314 seconds
#
# Revision: 0
# Processed by: cddbd v1.5.2PL0 Copyright (c) Steve Scherf et al.
# Submitted via: EasyCDDAExtractor 11.0.3.1
#
DISCID=50090807
DTITLE=Clarence Carter - Live In Johannesburg
DYEAR=1900
DGENRE=
TTITLE0=Intro
TTITLE1=Girl From Soweto
TTITLE2=Looking For A For A Fox
TTITLE3=Patches
TTITLE4=Take It All Off
TTITLE5=I Got Caught
TTITLE6=Don't Bother Me
EXTD=
EXTT0=
EXTT1=
EXTT2=
EXTT3=
EXTT4=
EXTT5=
EXTT6=
PLAYORDER=
